<svg width="16" height="15" viewBox="0 0 16 15" fill="none" xmlns="http://www.w3.org/2000/svg">
<path d="M15.3468 4.04486C15.2508 3.90877 15.122 3.84073 14.9603 3.84073H4.66847L3.88029 1.16431C3.80955 0.922379 3.71356 0.715726 3.5923 0.544355C3.47104 0.372984 3.3422 0.252016 3.20578 0.181452C3.06937 0.110887 2.95063 0.063004 2.84959 0.0378024C2.74854 0.0126008 2.64749 0 2.54644 0H0.469878C0.338515 0 0.227361 0.0453629 0.136416 0.136089C0.0454721 0.226815 0 0.342742 0 0.483871C0 0.564516 0.0202098 0.642641 0.0606295 0.718246C0.101049 0.793851 0.159152 0.851815 0.234939 0.892137C0.310726 0.93246 0.389039 0.952621 0.469878 0.952621H2.54644C2.58686 0.952621 2.62475 0.957661 2.66012 0.967742C2.69549 0.977823 2.74348 1.02067 2.80411 1.09627C2.86474 1.17188 2.91527 1.28528 2.95569 1.43649L5.63854 11.2651C5.65875 11.3256 5.69159 11.3836 5.73706 11.439C5.78254 11.4945 5.83559 11.5373 5.89622 11.5675C5.95685 11.5978 6.02253 11.6129 6.09326 11.6129H12.6412C12.7423 11.6129 12.8358 11.5827 12.9217 11.5222C13.0075 11.4617 13.0657 11.3861 13.096 11.2954L15.415 4.49093C15.4656 4.32964 15.4428 4.18095 15.3468 4.04486ZM11.3529 12.5806C11.0194 12.5806 10.7339 12.6991 10.4965 12.936C10.259 13.1729 10.1403 13.4577 10.1403 13.7903C10.1403 14.123 10.259 14.4078 10.4965 14.6447C10.7339 14.8816 11.0194 15 11.3529 15C11.6863 15 11.9718 14.8816 12.2093 14.6447C12.4467 14.4078 12.5655 14.123 12.5655 13.7903C12.5655 13.4577 12.4467 13.1729 12.2093 12.936C11.9718 12.6991 11.6863 12.5806 11.3529 12.5806ZM6.98755 12.5806C6.76524 12.5806 6.56061 12.6361 6.37367 12.747C6.18673 12.8579 6.04021 13.004 5.93411 13.1855C5.82801 13.3669 5.77496 13.5685 5.77496 13.7903C5.77496 14.123 5.89369 14.4078 6.13116 14.6447C6.36862 14.8816 6.65409 15 6.98755 15C7.32101 15 7.60647 14.8816 7.84394 14.6447C8.0814 14.4078 8.20014 14.123 8.20014 13.7903C8.20014 13.7097 8.19256 13.629 8.1774 13.5484C8.16224 13.4677 8.13951 13.3921 8.10919 13.3216C8.07888 13.251 8.04099 13.183 7.99551 13.1174C7.95004 13.0519 7.89952 12.9914 7.84394 12.936C7.78836 12.8805 7.72773 12.8301 7.66205 12.7848C7.59637 12.7394 7.52816 12.7016 7.45743 12.6714C7.38669 12.6411 7.3109 12.6184 7.23007 12.6033C7.14923 12.5882 7.06839 12.5806 6.98755 12.5806Z" fill="#063ECF"/>
</svg>
