<svg width="23" height="20" viewBox="0 0 23 20" fill="none" xmlns="http://www.w3.org/2000/svg">
<path d="M11.085 20C10.9319 19.9995 10.7832 19.9484 10.6623 19.8545C6.80963 16.8611 4.15575 14.2834 2.29872 11.7404C-0.0710759 8.49057 -0.611555 5.49022 0.691138 2.82248C1.61965 0.916942 4.2874 -0.642132 7.40555 0.265595C8.89224 0.695026 10.1894 1.61595 11.085 2.87791C11.9806 1.61595 13.2777 0.695026 14.7644 0.265595C17.8756 -0.628273 20.5503 0.916942 21.4788 2.82248C22.7815 5.49022 22.241 8.49057 19.8712 11.7404C18.0142 14.2834 15.3603 16.8611 11.5076 19.8545C11.3867 19.9484 11.2381 19.9995 11.085 20ZM5.63167 1.39506C4.88972 1.36618 4.15392 1.53991 3.50325 1.8976C2.85258 2.25528 2.3116 2.78342 1.9384 3.42532C0.864368 5.62881 1.34941 8.08175 3.42125 10.9158C5.62305 13.7558 8.20131 16.2828 11.085 18.4271C13.9682 16.2849 16.5464 13.7603 18.7487 10.9227C20.8274 8.08175 21.3056 5.62881 20.2315 3.43225C19.5386 2.0464 17.4598 0.944658 15.1455 1.596C14.4034 1.81532 13.7154 2.18756 13.1259 2.68879C12.5364 3.19002 12.0583 3.80913 11.7224 4.50628C11.6702 4.63336 11.5814 4.74207 11.4673 4.81856C11.3532 4.89506 11.2189 4.93591 11.0815 4.93591C10.9441 4.93591 10.8098 4.89506 10.6957 4.81856C10.5816 4.74207 10.4927 4.63336 10.4405 4.50628C10.1072 3.80739 9.62998 3.18683 9.04007 2.68529C8.45016 2.18375 7.76092 1.81254 7.01751 1.596C6.5671 1.46518 6.10069 1.39755 5.63167 1.39506Z"/>
</svg>
