<svg width="17" height="15" viewBox="0 0 17 15" fill="none" xmlns="http://www.w3.org/2000/svg">
<path d="M8.31372 15C8.1989 14.9996 8.08742 14.9613 7.99671 14.8909C5.10723 12.6458 3.11681 10.7125 1.72404 8.80528C-0.0533069 6.36793 -0.458666 4.11767 0.518353 2.11686C1.21474 0.687706 3.21555 -0.481599 5.55416 0.199197C6.66918 0.521269 7.64201 1.21196 8.31372 2.15843C8.98543 1.21196 9.95826 0.521269 11.0733 0.199197C13.4067 -0.471205 15.4127 0.687706 16.1091 2.11686C17.0861 4.11767 16.6807 6.36793 14.9034 8.80528C13.5106 10.7125 11.5202 12.6458 8.63073 14.8909C8.54002 14.9613 8.42855 14.9996 8.31372 15Z"/>
</svg>
