<svg width="16" height="15" viewBox="0 0 16 15" fill="none" xmlns="http://www.w3.org/2000/svg">
<path d="M11.8614 15C11.7121 14.9995 11.5632 14.9832 11.4174 14.9511C8.64117 14.3768 6.08351 13.0303 4.03881 11.0665C2.03775 9.09838 0.649901 6.59255 0.0431904 3.85217C-0.0283484 3.51064 -0.01079 3.15645 0.0941765 2.82366C0.199143 2.49088 0.387985 2.19071 0.642534 1.95203L2.41837 0.242794C2.50907 0.157015 2.61684 0.0913281 2.73465 0.050019C2.85246 0.00870986 2.97765 -0.00729258 3.10206 0.00305605C3.23106 0.0165137 3.35555 0.0580684 3.46676 0.124798C3.57798 0.191527 3.67322 0.281811 3.7458 0.3893L5.96559 3.67015C6.04884 3.79745 6.08902 3.94811 6.08023 4.09996C6.07144 4.25181 6.01414 4.39683 5.91676 4.51367L4.80242 5.84555C5.24623 6.82778 5.87474 7.71553 6.65373 8.46046C7.42768 9.23242 8.34247 9.84881 9.34856 10.2763L10.7293 9.17968C10.8452 9.08803 10.9863 9.03384 11.1338 9.02433C11.2813 9.01481 11.4282 9.05041 11.555 9.1264L14.9069 11.2929C15.0219 11.3616 15.1199 11.4554 15.1936 11.5673C15.2672 11.6793 15.3145 11.8064 15.332 11.9392C15.3495 12.072 15.3368 12.2071 15.2947 12.3343C15.2526 12.4615 15.1822 12.5775 15.0889 12.6736L13.3575 14.3873C13.1608 14.583 12.9274 14.7379 12.6706 14.843C12.4138 14.9482 12.1388 15.0015 11.8614 15Z" fill="#063DCC"/>
</svg>
