<svg width="20" height="15" viewBox="0 0 20 15" fill="none" xmlns="http://www.w3.org/2000/svg">
<path d="M19.0909 1.77927C18.3889 2.07995 17.6347 2.28311 16.8418 2.37493C17.6599 1.90181 18.2719 1.15718 18.5637 0.279967C17.7951 0.721218 16.9539 1.03181 16.0767 1.19824C15.4868 0.58947 14.7054 0.185967 13.8539 0.050377C13.0024 -0.0852125 12.1284 0.0546982 11.3676 0.448387C10.6068 0.842076 10.0018 1.46752 9.64648 2.22761C9.29114 2.9877 9.20539 3.83991 9.40252 4.65193C7.84512 4.57635 6.32156 4.18511 4.93073 3.5036C3.5399 2.82209 2.31287 1.86554 1.32928 0.696035C0.992969 1.25675 0.799588 1.90686 0.799588 2.59922C0.799213 3.22251 0.95802 3.83624 1.26192 4.38598C1.56582 4.93572 2.00541 5.40446 2.5417 5.75061C1.91975 5.73148 1.31152 5.56905 0.767639 5.27684V5.3256C0.767576 6.19978 1.08044 7.04707 1.65314 7.72368C2.22584 8.40029 3.02311 8.86456 3.90966 9.03771C3.3327 9.18863 2.7278 9.21086 2.14064 9.10272C2.39078 9.8549 2.87801 10.5127 3.53414 10.9839C4.19026 11.4551 4.98243 11.7163 5.79975 11.7308C4.41231 12.7835 2.69883 13.3545 0.934955 13.352C0.622503 13.3521 0.310315 13.3344 0 13.2992C1.79044 14.4118 3.87463 15.0023 6.00322 15C13.2088 15 17.1479 9.23193 17.1479 4.22936C17.1479 4.06683 17.1436 3.90268 17.1361 3.74016C17.9023 3.20461 18.5637 2.54144 19.0892 1.78171L19.0909 1.77927Z" fill="#00ACED"/>
</svg>
