<svg width="26" height="15" viewBox="0 0 26 15" fill="none" xmlns="http://www.w3.org/2000/svg">
<path fill-rule="evenodd" clip-rule="evenodd" d="M25.125 1.01571C25.3029 0.430714 25.125 0 24.2732 0H21.4607C20.745 0 20.415 0.371786 20.2361 0.782143C20.2361 0.782143 18.8057 4.20643 16.7796 6.43071C16.1239 7.07571 15.8261 7.28036 15.4682 7.28036C15.2893 7.28036 15.0204 7.07571 15.0204 6.48964V1.01571C15.0204 0.312857 14.8232 0 14.2275 0H9.80464C9.35786 0 9.08893 0.325714 9.08893 0.635357C9.08893 1.30071 10.1025 1.455 10.2064 3.32786V7.39714C10.2064 8.28964 10.0425 8.45143 9.68464 8.45143C8.73107 8.45143 6.41143 5.01107 5.03464 1.07464C4.76786 0.308571 4.49786 0 3.77893 0H0.964286C0.160714 0 0 0.371786 0 0.782143C0 1.51286 0.953571 5.14286 4.44107 9.94393C6.76607 13.2225 10.0393 15 13.0211 15C14.8093 15 15.03 14.6057 15.03 13.9254V11.4471C15.03 10.6575 15.1993 10.5 15.7661 10.5C16.1839 10.5 16.8986 10.7057 18.5679 12.2861C20.475 14.16 20.7889 15 21.8625 15H24.675C25.4786 15 25.8814 14.6057 25.65 13.8257C25.395 13.05 24.4843 11.9239 23.2768 10.5879C22.6211 9.82714 21.6375 9.0075 21.3386 8.59714C20.9218 8.07107 21.0407 7.83643 21.3386 7.36821C21.3386 7.36821 24.7671 2.62607 25.1239 1.01571H25.125Z" fill="#4D75A3"/>
</svg>
